<svg width="1920" height="1300" viewBox="0 0 1920 1300" fill="none" xmlns="http://www.w3.org/2000/svg">
<g clip-path="url(#clip0_2432_57956)">
<rect width="1920" height="1300" fill="#453CD5"/>
<g clip-path="url(#clip1_2432_57956)">
<path fill-rule="evenodd" clip-rule="evenodd" d="M2038.87 1240.75C1734.79 1419.93 1413.93 1576.27 1078.7 1707.03L532.333 1744.43C1065.34 1583.77 1566.87 1358.76 2027.84 1079.64L2038.87 1240.75L2038.87 1240.75Z" fill="white" fill-opacity="0.08"/>
<path fill-rule="evenodd" clip-rule="evenodd" d="M2013.53 870.595C1412.59 1268.27 730.191 1564.22 -8.06881 1730L-17.9344 1585.86C722.694 1416.41 1405.18 1112.46 2002.15 704.324L2013.53 870.595Z" fill="white" fill-opacity="0.08"/>
<path fill-rule="evenodd" clip-rule="evenodd" d="M1990.68 536.64C1398.03 955.846 715.408 1268.3 -27.7921 1441.65L-37.6682 1297.36C708.368 1119.85 1391.14 798.22 1979.09 367.185L1990.68 536.638L1990.68 536.64Z" fill="white" fill-opacity="0.08"/>
<path fill-rule="evenodd" clip-rule="evenodd" d="M1966.91 189.223C1389.92 646.812 706.739 989.234 -45.966 1176.12L-55.8678 1031.45C700.757 839.32 1384.22 485.116 1954.82 12.6562L1966.91 189.223Z" fill="white" fill-opacity="0.08"/>
<path fill-rule="evenodd" clip-rule="evenodd" d="M1942.2 -171.577C1378.75 316.976 694.888 683.982 -66.1167 881.801L-76.0463 736.728C689.925 532.715 1374.27 151.619 1929.69 -354.452L1942.2 -171.577Z" fill="white" fill-opacity="0.08"/>
<path fill-rule="evenodd" clip-rule="evenodd" d="M1914.35 -578.539C1378.52 -31.9235 692.798 382.253 -85.3575 600.669L-95.3256 455.034C624.27 247.409 1260.9 -133.725 1765.26 -634.383L1909.85 -644.28L1914.35 -578.539Z" fill="white" fill-opacity="0.08"/>
<path fill-rule="evenodd" clip-rule="evenodd" d="M1755.71 -773.927C1251.35 -273.269 614.72 107.868 -104.876 315.49L-114.871 169.471C510.713 -16.4557 1070.23 -338.595 1528.6 -758.382L1755.71 -773.927Z" fill="white" fill-opacity="0.08"/>
<path fill-rule="evenodd" clip-rule="evenodd" d="M1291.48 -716.269C885.253 -376.78 406.031 -113.191 -123.115 49.0061L-133.148 -97.5777C296.075 -233.458 690.525 -438.827 1036.72 -698.832L1291.48 -716.269Z" fill="white" fill-opacity="0.08"/>
</g>
</g>
<defs>
<clipPath id="clip0_2432_57956">
<rect width="1920" height="1300" fill="white"/>
</clipPath>
<clipPath id="clip1_2432_57956">
<rect width="2075.56" height="2889.2" fill="white" transform="matrix(-0.997666 0.0682859 0.0682859 0.997666 1888.09 -962)"/>
</clipPath>
</defs>
</svg>
